<mxfile host="app.diagrams.net" modified="2023-09-11T11:18:50.867Z" agent="Mozilla/5.0 (Windows NT 10.0; Win64; x64) AppleWebKit/537.36 (KHTML, like Gecko) Chrome/116.0.0.0 Safari/537.36" etag="TSPSVhhMQvOrToXLpgU9" version="21.7.4" type="device">
  <diagram name="1 oldal" id="SyNQxYplOWr64I3Cc73S">
    <mxGraphModel dx="1434" dy="790" grid="1" gridSize="10" guides="1" tooltips="1" connect="1" arrows="1" fold="1" page="1" pageScale="1" pageWidth="827" pageHeight="1169" math="0" shadow="0">
      <root>
        <mxCell id="0" />
        <mxCell id="1" parent="0" />
        <mxCell id="L4adpVO2zgECinna1kMI-1" value="SÖR" style="rounded=0;whiteSpace=wrap;html=1;" vertex="1" parent="1">
          <mxGeometry x="350" y="380" width="120" height="60" as="geometry" />
        </mxCell>
        <mxCell id="L4adpVO2zgECinna1kMI-2" value="MÁRKA" style="ellipse;whiteSpace=wrap;html=1;" vertex="1" parent="1">
          <mxGeometry x="230" y="280" width="90" height="60" as="geometry" />
        </mxCell>
        <mxCell id="L4adpVO2zgECinna1kMI-3" value="ERJESZTÉS" style="ellipse;whiteSpace=wrap;html=1;" vertex="1" parent="1">
          <mxGeometry x="190" y="380" width="90" height="60" as="geometry" />
        </mxCell>
        <mxCell id="L4adpVO2zgECinna1kMI-4" value="FAJTÁK" style="ellipse;whiteSpace=wrap;html=1;" vertex="1" parent="1">
          <mxGeometry x="270" y="470" width="120" height="80" as="geometry" />
        </mxCell>
        <mxCell id="L4adpVO2zgECinna1kMI-5" value="SZÍN" style="ellipse;whiteSpace=wrap;html=1;" vertex="1" parent="1">
          <mxGeometry x="440" y="470" width="120" height="80" as="geometry" />
        </mxCell>
        <mxCell id="L4adpVO2zgECinna1kMI-6" value="ALK%" style="ellipse;whiteSpace=wrap;html=1;" vertex="1" parent="1">
          <mxGeometry x="530" y="360" width="120" height="80" as="geometry" />
        </mxCell>
      </root>
    </mxGraphModel>
  </diagram>
</mxfile>
